<svg width="30" height="30" viewBox="0 0 30 30" fill="none" xmlns="http://www.w3.org/2000/svg">
<path fill-rule="evenodd" clip-rule="evenodd" d="M6 0C2.68629 0 0 2.68629 0 6V24C0 27.3137 2.68629 30 6 30H24C27.3137 30 30 27.3137 30 24V6C30 2.68629 27.3137 0 24 0H6ZM21.2378 10.0776C21.2479 10.0815 21.2562 10.0888 21.2612 10.0979C23.2939 12.9309 24.2979 16.1266 23.9225 19.8056C23.9217 19.8134 23.9193 19.8209 23.9152 19.8276C23.9112 19.8344 23.9057 19.8403 23.899 19.8449C22.5385 20.8 21.016 21.528 19.3971 21.9976C19.3857 22.0009 19.3734 22.0007 19.3621 21.9971C19.3508 21.9934 19.3409 21.9865 19.334 21.9773C18.9916 21.527 18.6845 21.0536 18.4152 20.5608C18.4115 20.554 18.4093 20.5465 18.4089 20.5388C18.4084 20.5312 18.4097 20.5235 18.4126 20.5164C18.4155 20.5092 18.4199 20.5027 18.4257 20.4973C18.4314 20.4919 18.4382 20.4877 18.4458 20.485C18.932 20.3117 19.402 20.0998 19.8506 19.8515C19.8587 19.8469 19.8655 19.8405 19.8704 19.8328C19.8753 19.8251 19.8781 19.8164 19.8786 19.8074C19.8791 19.7985 19.8772 19.7895 19.8732 19.7814C19.8692 19.7733 19.8631 19.7662 19.8555 19.7608C19.7605 19.6938 19.6661 19.6235 19.576 19.5531C19.5679 19.5468 19.558 19.5428 19.5476 19.5416C19.5371 19.5404 19.5266 19.542 19.5171 19.5463C16.6062 20.8207 13.4169 20.8207 10.4711 19.5463C10.4617 19.5423 10.4512 19.5408 10.4409 19.5422C10.4307 19.5435 10.421 19.5475 10.413 19.5537C10.3229 19.6241 10.2285 19.6938 10.1341 19.7608C10.1266 19.7663 10.1206 19.7734 10.1166 19.7815C10.1127 19.7897 10.1109 19.7986 10.1114 19.8076C10.112 19.8166 10.1149 19.8253 10.1198 19.8329C10.1248 19.8406 10.1316 19.847 10.1398 19.8515C10.5894 20.0977 11.0589 20.3098 11.5439 20.4857C11.5515 20.4883 11.5584 20.4924 11.5641 20.4977C11.5699 20.5031 11.5744 20.5095 11.5773 20.5166C11.5803 20.5237 11.5816 20.5313 11.5812 20.5389C11.5808 20.5465 11.5788 20.554 11.5751 20.5608C11.3102 21.0564 11.0027 21.5304 10.6556 21.9781C10.6485 21.9871 10.6386 21.9938 10.6273 21.9973C10.616 22.0008 10.6038 22.0009 10.5925 21.9977C8.97645 21.5265 7.45661 20.7986 6.0978 19.8449C6.09128 19.84 6.08584 19.834 6.08182 19.8272C6.07779 19.8203 6.07527 19.8128 6.07438 19.805C5.76079 16.6227 6.40004 13.4006 8.73359 10.0973C8.73929 10.0885 8.74772 10.0817 8.75771 10.0777C9.9246 9.56966 11.1562 9.2077 12.4216 9.00089C12.4331 8.99917 12.4449 9.00078 12.4554 9.00549C12.4659 9.01019 12.4747 9.01779 12.4805 9.02729C12.6521 9.31497 12.8068 9.61141 12.9439 9.91524C14.3077 9.71899 15.6951 9.71899 17.059 9.91524C17.1951 9.61218 17.3474 9.31582 17.5151 9.02729C17.5207 9.01758 17.5294 9.0098 17.54 9.00506C17.5506 9.00032 17.5624 8.99886 17.5739 9.00089C18.8392 9.20813 20.0708 9.57006 21.2378 10.0776ZM10.3974 16.1483C10.3974 17.0958 11.1281 17.8673 12.015 17.8673C12.9161 17.8673 13.6327 17.0958 13.6327 16.1483C13.6469 15.2075 12.9232 14.4293 12.015 14.4293C11.114 14.4293 10.3974 15.2008 10.3974 16.1483ZM16.3784 16.1483C16.3784 17.0958 17.1092 17.8673 17.9961 17.8673C18.9043 17.8673 19.6138 17.0958 19.6138 16.1483C19.6279 15.2075 18.9043 14.4293 17.9961 14.4293C17.095 14.4293 16.3784 15.2008 16.3784 16.1483Z" fill="#161E25"/>
</svg>
