<svg width="30" height="30" viewBox="0 0 30 30" fill="none" xmlns="http://www.w3.org/2000/svg">
<path fill-rule="evenodd" clip-rule="evenodd" d="M6 0C2.68629 0 0 2.68629 0 6V24C0 27.3137 2.68629 30 6 30H24C27.3137 30 30 27.3137 30 24V6C30 2.68629 27.3137 0 24 0H6ZM6.1787 13.2352C6.86627 9.71144 9.69359 6.87028 13.2047 6.17941C18.9683 5.04574 23.9993 9.43653 23.9993 15.063V15.8512C24.0331 17.6199 22.8759 19.3244 21.1408 19.7281C19.4812 20.1504 17.9321 19.4946 17.0304 18.3143C16.3105 18.8926 15.4091 19.2525 14.4157 19.2525C11.895 19.2525 9.89262 17.028 10.2489 14.4255C10.4593 12.8895 11.5628 11.5629 13.0188 11.0451C14.2143 10.6199 15.3186 10.7794 16.2522 11.2376C16.3244 10.9854 16.5461 10.7972 16.8203 10.7972L18.0219 10.797C18.3544 10.797 18.6234 11.0675 18.6234 11.4012V15.9303C18.6234 16.7633 19.2978 17.4406 20.1267 17.4406C20.9555 17.4406 21.6296 16.7633 21.6296 15.9303V15.3209C21.6296 11.8533 19.11 8.74664 15.6706 8.41218C11.7334 8.03129 8.40411 11.1462 8.40411 15.0267C8.40411 18.3479 10.8407 21.1065 14.0099 21.596C14.5885 21.685 15.0184 22.1805 15.0184 22.7741L15.0184 22.7991C15.0184 23.5243 14.3736 24.0955 13.6594 23.9866C8.75804 23.2739 5.1402 18.5487 6.1787 13.2352ZM12.5773 15.0612C12.5773 16.0601 13.3862 16.8732 14.3807 16.8732C15.4102 16.8732 16.1842 16.0601 16.1842 15.0612C16.1842 14.0622 15.3753 13.2491 14.3807 13.2491C13.3862 13.2491 12.5773 14.0622 12.5773 15.0612Z" fill="#161E25"/>
</svg>
