<svg width="30" height="30" viewBox="0 0 30 30" fill="none" xmlns="http://www.w3.org/2000/svg">
<path fill-rule="evenodd" clip-rule="evenodd" d="M6 0C2.68629 0 0 2.68629 0 6V24C0 27.3137 2.68629 30 6 30H24C27.3137 30 30 27.3137 30 24V6C30 2.68629 27.3137 0 24 0H6ZM20.8359 12.3935L20.2136 16.375H16.9452V26H12.5617V16.375H9V12.3935H12.5617V9.35906C12.5617 5.90695 14.656 4 17.8602 4C19.3949 4 21 4.26898 21 4.26898V7.65879H19.2312C17.4887 7.65879 16.9452 8.72055 16.9452 9.8098V12.3935H20.8359Z" fill="#161E25"/>
</svg>
