<svg width="31" height="30" viewBox="0 0 31 30" fill="none" xmlns="http://www.w3.org/2000/svg">
<path fill-rule="evenodd" clip-rule="evenodd" d="M6.33398 0C3.02028 0 0.333984 2.68629 0.333984 6V24C0.333984 27.3137 3.02028 30 6.33398 30H24.334C27.6477 30 30.334 27.3137 30.334 24V6C30.334 2.68629 27.6477 0 24.334 0H6.33398ZM15.335 6C12.8907 6 12.5842 6.01037 11.6243 6.05418C10.6663 6.09788 10.0121 6.25 9.43959 6.4725C8.84776 6.7025 8.34584 7.01025 7.84553 7.5106C7.34518 8.01091 7.03742 8.51284 6.80743 9.10466C6.58492 9.67711 6.4328 10.3314 6.3891 11.2893C6.3453 12.2493 6.33496 12.5558 6.33496 15C6.33496 17.4442 6.3453 17.7507 6.3891 18.7107C6.4328 19.6686 6.58492 20.3229 6.80743 20.8953C7.03742 21.4872 7.34518 21.9891 7.84553 22.4895C8.34584 22.9898 8.84776 23.2975 9.43959 23.5275C10.0121 23.75 10.6663 23.9022 11.6243 23.9459C12.5842 23.9896 12.8907 24 15.335 24C17.7792 24 18.0857 23.9896 19.0456 23.9459C20.0036 23.9022 20.6578 23.75 21.2303 23.5275C21.8221 23.2975 22.3241 22.9898 22.8244 22.4895C23.3247 21.9891 23.6325 21.4872 23.8625 20.8953C24.085 20.3229 24.2371 19.6686 24.2808 18.7107C24.3246 17.7507 24.335 17.4442 24.335 15C24.335 12.5558 24.3246 12.2493 24.2808 11.2893C24.2371 10.3314 24.085 9.67711 23.8625 9.10466C23.6325 8.51284 23.3247 8.01091 22.8244 7.5106C22.3241 7.01025 21.8221 6.7025 21.2303 6.4725C20.6578 6.25 20.0036 6.09788 19.0456 6.05418C18.0857 6.01037 17.7792 6 15.335 6ZM15.335 7.62166C17.7381 7.62166 18.0227 7.6308 18.9718 7.67411C19.8492 7.71416 20.3258 7.86076 20.6429 7.98398C21.063 8.14725 21.3628 8.34229 21.6777 8.65723C21.9927 8.97216 22.1877 9.27201 22.351 9.69205C22.4742 10.0092 22.6208 10.4857 22.6609 11.3632C22.7042 12.3123 22.7133 12.5969 22.7133 15C22.7133 17.4031 22.7042 17.6878 22.6609 18.6368C22.6208 19.5143 22.4742 19.9908 22.351 20.3079C22.1877 20.728 21.9927 21.0278 21.6777 21.3428C21.3628 21.6577 21.063 21.8528 20.6429 22.016C20.3258 22.1393 19.8492 22.2859 18.9718 22.3259C18.0229 22.3692 17.7383 22.3784 15.335 22.3784C12.9317 22.3784 12.6471 22.3692 11.6982 22.3259C10.8207 22.2859 10.3442 22.1393 10.027 22.016C9.60693 21.8528 9.30712 21.6577 8.99215 21.3428C8.67722 21.0278 8.48217 20.728 8.31894 20.3079C8.19568 19.9908 8.04908 19.5143 8.00904 18.6368C7.96572 17.6878 7.95658 17.4031 7.95658 15C7.95658 12.5969 7.96572 12.3123 8.00904 11.3632C8.04908 10.4857 8.19568 10.0092 8.31894 9.69205C8.48217 9.27201 8.67722 8.97216 8.99215 8.65723C9.30712 8.34229 9.60693 8.14725 10.027 7.98398C10.3442 7.86076 10.8207 7.71416 11.6982 7.67411C12.6472 7.6308 12.9319 7.62166 15.335 7.62166ZM15.335 17.9997C13.6781 17.9997 12.3349 16.6565 12.3349 14.9997C12.3349 13.3428 13.6781 11.9997 15.335 11.9997C16.9918 11.9997 18.3349 13.3428 18.3349 14.9997C18.3349 16.6565 16.9918 17.9997 15.335 17.9997ZM15.335 10.3781C12.7825 10.3781 10.7133 12.4472 10.7133 14.9997C10.7133 17.5522 12.7825 19.6213 15.335 19.6213C17.8874 19.6213 19.9566 17.5522 19.9566 14.9997C19.9566 12.4472 17.8874 10.3781 15.335 10.3781ZM20.1391 11.2757C20.7356 11.2757 21.2191 10.7922 21.2191 10.1957C21.2191 9.59924 20.7356 9.11574 20.1391 9.11574C19.5426 9.11574 19.0591 9.59924 19.0591 10.1957C19.0591 10.7922 19.5426 11.2757 20.1391 11.2757Z" fill="#161E25"/>
</svg>
