<svg width="30" height="30" viewBox="0 0 30 30" fill="none" xmlns="http://www.w3.org/2000/svg">
<path fill-rule="evenodd" clip-rule="evenodd" d="M6 0C2.68629 0 0 2.68629 0 6V24C0 27.3137 2.68629 30 6 30H24C27.3137 30 30 27.3137 30 24V6C30 2.68629 27.3137 0 24 0H6ZM13.224 9C16.3685 9 18.964 11.3071 19.2635 14.2459C20.7908 14.5619 21.9488 15.8733 21.9488 17.4337C21.9488 19.243 20.4114 20.7077 18.5247 20.7077H8.0829C5.8268 20.7077 4 18.9559 4 16.8019C4 14.8395 5.51735 13.2216 7.48393 12.944C8.3125 10.6083 10.6185 9 13.224 9ZM8.0829 19.243H18.5247C19.5729 19.243 20.4215 18.4293 20.4215 17.4337C20.4215 16.6679 19.9123 16.017 19.2136 15.7585C19.1636 16.0552 19.0838 16.352 18.9839 16.6392C18.695 17.526 17.214 17.1311 17.5365 16.1797C17.6862 15.7393 17.7661 15.2798 17.7661 14.8107C17.7661 12.4175 15.7296 10.4646 13.224 10.4646C11.4271 10.4646 9.8099 11.4889 9.09116 13.0206C9.78993 13.1929 10.4388 13.5375 10.9679 14.0353C11.6873 14.7252 10.5995 15.769 9.87978 15.0788C9.40061 14.6193 8.7617 14.3608 8.0829 14.3608C6.67534 14.3608 5.52733 15.4521 5.52733 16.8019C5.52733 18.1517 6.67534 19.243 8.0829 19.243ZM25.6623 21.6745C26.5408 20.4205 27 18.9558 27 17.4337C27 15.9116 26.5408 14.447 25.6623 13.2025C25.0926 12.3829 23.8301 13.2268 24.3945 14.0162C25.0933 15.0214 25.4727 16.2084 25.4727 17.4337C25.4727 18.659 25.0933 19.8461 24.3945 20.8608C24.0454 21.3491 24.4351 22 25.0234 22C25.273 22 25.5126 21.8851 25.6623 21.6745ZM23.4762 20.4875C24.115 19.5781 24.4445 18.5251 24.4445 17.4337C24.4445 16.3424 24.115 15.2894 23.4762 14.3895C22.8937 13.575 21.6401 14.4085 22.2084 15.2032C22.6776 15.8638 22.9171 16.6392 22.9171 17.4337C22.9171 18.2378 22.6776 19.0037 22.2084 19.6642C21.863 20.1472 22.2171 20.8034 22.8373 20.8034C23.0868 20.8034 23.3264 20.6981 23.4762 20.4875Z" fill="#161E25"/>
</svg>
