<svg width="30" height="30" viewBox="0 0 30 30" fill="none" xmlns="http://www.w3.org/2000/svg">
<path fill-rule="evenodd" clip-rule="evenodd" d="M6.00098 0C2.68727 0 0.000976562 2.68629 0.000976562 6V24C0.000976562 27.3137 2.68727 30 6.00098 30H24.001C27.3147 30 30.001 27.3137 30.001 24V6C30.001 2.68629 27.3147 0 24.001 0H6.00098ZM7.87193 17.1643L7.66799 14.8838C7.65744 14.8066 7.59064 14.7364 7.51328 14.7364C7.43241 14.7364 7.3656 14.8066 7.3656 14.8838L7.1687 17.1643L7.3656 19.5605C7.3656 19.6483 7.43593 19.7149 7.51328 19.7149C7.59064 19.7149 7.65744 19.6483 7.66799 19.5605L7.87193 17.1643ZM8.24465 13.4593C8.25519 13.3611 8.322 13.2839 8.42045 13.2839C8.50836 13.2839 8.58571 13.3611 8.58571 13.4593L8.78965 17.1643L8.58571 19.5605C8.58571 19.6588 8.50836 19.736 8.42045 19.736C8.322 19.736 8.25519 19.6588 8.24465 19.5605L8.06884 17.1643L8.24465 13.4593ZM9.12017 12.6243C9.13072 12.5156 9.20808 12.4384 9.31708 12.4384C9.41553 12.4384 9.50344 12.5156 9.50344 12.6243L9.68979 17.1853L9.50344 19.5641C9.50344 19.6728 9.41553 19.75 9.31708 19.75C9.20808 19.75 9.13072 19.6728 9.12017 19.5641L8.96546 17.1853L9.12017 12.6243ZM3.91624 15.9153C3.92679 15.8661 3.95491 15.8275 4.00414 15.8275C4.05337 15.8275 4.0815 15.8661 4.09205 15.9153L4.28895 17.1643L4.09205 18.3922C4.0815 18.4413 4.05337 18.4799 4.00414 18.4799C3.95491 18.4799 3.92679 18.4413 3.91624 18.3922L3.75098 17.1643L3.91624 15.9153ZM4.74605 15.1469C4.74605 15.0978 4.78473 15.0592 4.83396 15.0592C4.88318 15.0592 4.92186 15.0978 4.93241 15.1469L5.18558 17.1643L4.93241 19.143C4.92186 19.1922 4.88318 19.2307 4.83396 19.2307C4.78473 19.2307 4.74605 19.1922 4.74605 19.1325L4.52102 17.1643L4.74605 15.1469ZM5.60752 14.775C5.61455 14.7083 5.66377 14.6592 5.72355 14.6592C5.78332 14.6592 5.83255 14.7083 5.83255 14.775L6.07517 17.1643L5.83255 19.4728C5.83255 19.5325 5.78332 19.5816 5.72355 19.5816C5.66729 19.5816 5.61806 19.5325 5.60752 19.4728L5.40358 17.1643L5.60752 14.775ZM6.48656 14.7083C6.48656 14.6312 6.54633 14.582 6.61314 14.582C6.67995 14.582 6.73972 14.6312 6.75027 14.7083L6.97531 17.1643L6.75027 19.543C6.73972 19.6202 6.67995 19.6693 6.61314 19.6693C6.54633 19.6693 6.48656 19.6202 6.48656 19.543L6.28262 17.1643L6.48656 14.7083ZM14.9535 10.642C15.0027 10.642 15.0625 10.6631 15.1012 10.6912C15.1891 10.7403 15.2453 10.8385 15.2594 10.9438L15.3965 17.1713L15.2594 19.4237C15.2594 19.5886 15.1223 19.7254 14.957 19.7254C14.7918 19.7254 14.6546 19.5886 14.6441 19.4237L14.5843 18.3115L14.5245 17.1713L14.6406 10.9718V10.9438C14.6476 10.8561 14.6898 10.7684 14.7566 10.7087C14.8058 10.6701 14.8761 10.642 14.9535 10.642ZM14.0077 11.1788C14.0639 11.1788 14.1131 11.1999 14.1624 11.228C14.2397 11.2771 14.2889 11.3648 14.2995 11.463L14.4155 17.1748L14.3065 19.2307L14.296 19.4658C14.296 19.5465 14.2678 19.6132 14.2081 19.6623C14.1588 19.7114 14.0885 19.75 14.0112 19.75C13.9233 19.75 13.8459 19.7079 13.7861 19.6412C13.7475 19.5921 13.7264 19.536 13.7264 19.4763V19.4658C13.6174 17.1748 13.6174 17.1643 13.6174 17.1643L13.7158 11.5227L13.7264 11.463C13.7264 11.3648 13.7756 11.2771 13.8529 11.228C13.8987 11.1999 13.9514 11.1788 14.0077 11.1788ZM10.0414 12.2314C10.0414 12.1156 10.1363 12.0174 10.2453 12.0174C10.3649 12.0174 10.4528 12.1156 10.4598 12.2314L10.6356 17.1643L10.4598 19.5219C10.4493 19.6377 10.3614 19.7254 10.2453 19.7254C10.1399 19.7254 10.052 19.6377 10.0414 19.5219L9.8867 17.1643L10.0414 12.2314ZM22.4148 14.4347C22.7489 14.2979 23.111 14.2207 23.4908 14.2207C25.0133 14.2207 26.2545 15.4592 26.251 16.9888C26.251 18.508 25.0098 19.736 23.4873 19.736H15.8115C15.6462 19.7149 15.5091 19.5886 15.5091 19.4132V10.6526C15.5091 10.4842 15.5688 10.407 15.7833 10.3298C16.3213 10.1158 16.9261 10 17.552 10C20.1012 10 22.1898 11.9507 22.4148 14.4347ZM12.784 12.3787C12.7946 12.2209 12.9106 12.1051 13.0583 12.1051C13.206 12.1051 13.3115 12.2209 13.322 12.3787L13.4591 17.1748L13.322 19.4763C13.322 19.6237 13.206 19.7395 13.0583 19.7395C12.9106 19.7395 12.7946 19.6237 12.784 19.4763L12.668 17.1748L12.784 12.3787ZM10.9486 12.0665C10.9486 11.9402 11.0576 11.8314 11.1736 11.8314C11.3002 11.8314 11.3987 11.9402 11.4092 12.0665L11.5639 17.1643L11.4092 19.5114C11.3987 19.6377 11.3002 19.736 11.1736 19.736C11.0576 19.736 10.9591 19.6377 10.9486 19.5114L10.8115 17.1643L10.9486 12.0665ZM11.8698 12.1928C11.8698 12.0595 11.9753 11.9507 12.1124 11.9507C12.2496 11.9507 12.3551 12.056 12.3551 12.1928L12.5027 17.1643L12.3551 19.4939C12.3551 19.6272 12.2461 19.736 12.1124 19.736C11.9788 19.736 11.8804 19.6307 11.8698 19.4939L11.7327 17.1643L11.8698 12.1928Z" fill="#161E25"/>
</svg>
