<svg width="30" height="30" viewBox="0 0 30 30" fill="none" xmlns="http://www.w3.org/2000/svg">
<path fill-rule="evenodd" clip-rule="evenodd" d="M6 0C2.68629 0 0 2.68629 0 6V24C0 27.3137 2.68629 30 6 30H24C27.3137 30 30 27.3137 30 24V6C30 2.68629 27.3137 0 24 0H6ZM18.4376 9.78918H19.8131V13.8065H18.4376V9.78918ZM14.6571 9.77197H16.0326V13.7911H14.6571V9.77197ZM6.75 9.3479L10.1869 6H23.25V15.375L17.0624 21.4021H14.3117L10.8745 24.75V21.4021H6.75V9.3479ZM19.1252 17.3844L21.8748 14.7067V7.3396H10.8745V17.3844H13.9677V19.7281L16.3748 17.3844H19.1252Z" fill="#161E25"/>
</svg>
