<svg width="31" height="30" viewBox="0 0 31 30" fill="none" xmlns="http://www.w3.org/2000/svg">
<path fill-rule="evenodd" clip-rule="evenodd" d="M6.66699 0C3.35328 0 0.666992 2.68629 0.666992 6V24C0.666992 27.3137 3.35328 30 6.66699 30H24.667C27.9807 30 30.667 27.3137 30.667 24V6C30.667 2.68629 27.9807 0 24.667 0H6.66699ZM23.5037 11.2298C23.5037 16.2274 19.6322 22 12.5568 22C10.3885 22 8.36267 21.3725 6.66699 20.3095C6.96711 20.3465 7.27474 20.3612 7.58236 20.3612C9.38308 20.3612 11.0412 19.7559 12.3618 18.7372C10.6811 18.7077 9.25553 17.6152 8.76783 16.1093C9.00043 16.1535 9.24052 16.1757 9.48812 16.1757C9.84076 16.1757 10.1784 16.1314 10.501 16.0428C8.74532 15.6959 7.41729 14.1604 7.41729 12.3297V12.2781C7.935 12.5586 8.52774 12.7283 9.15799 12.7505C8.13008 12.0714 7.4473 10.9124 7.4473 9.59842C7.4473 8.90453 7.63488 8.25492 7.96501 7.6939C9.86327 9.98228 12.6994 11.4956 15.8957 11.6506C15.8357 11.3701 15.7981 11.0822 15.7981 10.7869C15.7981 8.69783 17.5238 7 19.6472 7C20.7501 7 21.748 7.45768 22.4533 8.19587C23.3312 8.02608 24.1565 7.71604 24.8993 7.28051C24.6067 8.16634 23.9989 8.91191 23.2036 9.37697C23.9839 9.281 24.7267 9.08169 25.417 8.77904C24.8993 9.53937 24.2465 10.2111 23.4962 10.7426C23.5037 10.905 23.5037 11.0673 23.5037 11.2297V11.2298Z" fill="#161E25"/>
</svg>
