<?xml version="1.0" standalone="no"?>
<!DOCTYPE svg PUBLIC "-//W3C//DTD SVG 20010904//EN"
 "http://www.w3.org/TR/2001/REC-SVG-20010904/DTD/svg10.dtd">
<svg version="1.0" xmlns="http://www.w3.org/2000/svg"
 width="513.000000pt" height="513.000000pt" viewBox="0 0 513.000000 513.000000"
 preserveAspectRatio="xMidYMid meet">
<metadata>
Created by potrace 1.14, written by Peter Selinger 2001-2017
</metadata>
<g transform="translate(0.000000,513.000000) scale(0.100000,-0.100000)"
fill="#000000" stroke="none">
<path d="M2369 5126 c-2 -2 -33 -6 -69 -10 -103 -10 -247 -35 -355 -62 -101
-25 -282 -81 -300 -93 -5 -4 -28 -13 -50 -20 -56 -19 -256 -119 -351 -175
-415 -247 -759 -621 -981 -1066 -23 -47 -39 -88 -35 -91 4 -3 27 -17 52 -30
25 -13 47 -26 50 -29 3 -3 43 -28 88 -55 96 -57 80 -47 322 -195 102 -62 209
-128 238 -146 29 -19 55 -34 58 -34 2 0 10 -5 17 -10 7 -6 131 -83 277 -171
146 -89 300 -183 343 -210 43 -27 82 -49 86 -49 5 0 11 -3 13 -8 3 -6 81 -56
177 -112 25 -14 147 -89 541 -330 96 -59 270 -165 385 -235 116 -71 255 -156
310 -190 167 -103 504 -309 523 -320 66 -37 322 -197 327 -204 7 -12 -184
-188 -293 -271 -131 -100 -256 -172 -452 -259 -93 -41 -304 -100 -420 -116
-25 -4 -70 -11 -100 -15 -55 -9 -427 -6 -465 3 -20 4 -61 12 -125 22 -68 11
-220 55 -317 91 -387 145 -720 412 -952 764 l-57 85 -254 -147 c-148 -86 -254
-153 -252 -161 4 -15 164 -255 189 -282 10 -11 36 -43 58 -70 94 -118 335
-343 455 -425 19 -14 41 -30 48 -37 7 -7 17 -13 22 -13 5 0 15 -6 22 -13 18
-18 116 -77 127 -77 5 0 11 -4 13 -8 4 -10 142 -81 254 -130 399 -176 879
-248 1301 -197 32 4 72 9 88 10 17 2 41 6 55 8 437 85 792 238 1110 479 127
96 148 113 235 197 154 149 265 283 378 457 64 98 202 352 195 358 -3 3 -736
452 -801 491 -19 11 -71 43 -116 70 -45 28 -97 59 -115 70 -18 11 -91 56 -162
99 -124 76 -233 143 -614 376 -96 59 -287 176 -424 260 -137 84 -262 160 -277
169 -15 9 -65 38 -111 66 -45 27 -85 52 -88 55 -3 3 -45 29 -95 59 -49 30
-169 102 -265 161 -347 212 -676 413 -707 433 -18 10 -33 22 -33 27 0 4 43 47
96 96 54 49 102 94 108 99 29 27 140 108 218 159 225 147 557 265 826 294 88
9 359 9 442 0 194 -23 360 -66 537 -139 365 -152 666 -402 894 -745 l54 -80
252 145 c139 81 253 151 253 157 0 16 -134 215 -205 304 -176 220 -372 399
-606 552 -80 53 -324 188 -339 188 -4 0 -20 6 -36 14 -71 34 -105 48 -204 80
-136 45 -281 82 -400 100 -52 8 -111 18 -130 21 -37 7 -475 16 -481 11z"/>
<path d="M2330 4294 c-307 -46 -581 -159 -818 -337 l-72 -55 117 -72 c65 -39
127 -77 138 -83 42 -26 182 -113 201 -125 10 -6 26 -15 34 -19 8 -4 48 -28 88
-54 l73 -47 77 33 c87 36 152 54 267 71 50 7 210 8 250 1 17 -3 50 -9 74 -12
118 -17 293 -93 413 -179 87 -62 191 -168 248 -253 l48 -72 184 106 c439 254
418 240 405 266 -34 66 -163 231 -247 317 -277 284 -612 454 -1010 514 -117
17 -356 17 -470 0z"/>
<path d="M855 2928 c-21 -97 -32 -219 -33 -348 0 -204 25 -359 90 -555 160
-482 532 -876 1003 -1064 90 -36 253 -83 330 -95 17 -3 62 -10 100 -16 72 -12
336 -16 390 -7 17 3 64 11 105 17 88 13 232 51 310 80 30 12 64 24 75 27 101
31 465 258 444 277 -4 3 -63 39 -479 294 l-166 101 -86 -34 c-47 -19 -101 -37
-119 -40 -18 -3 -35 -8 -39 -10 -3 -2 -28 -7 -56 -11 -568 -77 -1074 279
-1188 836 -8 41 -16 99 -17 128 l-3 52 -150 93 c-83 50 -159 96 -168 102 -25
14 -289 176 -314 192 -20 13 -22 11 -29 -19z"/>
</g>
</svg>
